<svg width="447" height="181" viewBox="0 0 447 181" fill="none" xmlns="http://www.w3.org/2000/svg">
<path d="M19.6136 34.6499C13.3336 45.2599 11.6436 56.8999 13.5636 68.9399C15.8236 83.1299 22.8036 95.0699 32.4736 105.44C42.7636 116.47 55.0436 124.66 69.0236 130.29C81.5936 135.36 94.5636 137.72 108.114 135.94C118.394 134.59 127.484 130.69 134.864 123.17C135.664 122.36 136.974 121.29 138.704 119.66C134.544 126.74 127.954 134.14 121.744 139.4C106.904 151.96 89.6636 158.43 70.2936 157.27C40.8036 155.5 18.3936 142.1 5.49362 114.68C2.56362 108.45 1.03361 101.76 0.453615 94.8799C0.393615 94.1699 0.203616 93.4799 0.0636156 92.7799C-0.236384 85.2899 0.54361 77.8899 2.00361 70.5499C5.59361 56.4499 11.9736 44.9599 19.6236 34.6699L19.6136 34.6499Z" fill="#AA744D"/>
<path d="M138.703 119.66C137.013 121.62 135.953 122.48 135.153 123.29C127.783 130.81 118.393 134.58 108.113 135.94C94.563 137.73 81.603 135.36 69.023 130.29C55.043 124.66 42.753 116.46 32.473 105.44C22.803 95.0701 15.813 83.1301 13.563 68.9401C11.653 56.9001 13.343 45.2601 19.613 34.6501C24.613 26.2001 32.503 21.4301 41.723 18.7901C47.903 17.0201 54.253 16.2801 60.693 16.6801C65.293 16.6801 69.783 17.5001 74.243 18.5301C81.913 20.2901 89.113 23.3101 96.133 26.8001C113.003 35.9001 127.113 48.0801 137.593 64.2701C142.563 71.9501 146.213 80.2001 147.383 89.3401C148.333 96.8001 147.553 104.11 143.963 110.89C142.373 113.91 140.723 116.9 138.703 119.66ZM101.333 81.4901C101.263 80.3901 101.273 79.1301 101.013 77.8601C98.633 66.2601 85.593 56.1201 73.443 56.8501C63.793 57.4401 57.403 65.4101 59.563 74.9001C62.083 85.9601 72.503 95.1001 83.803 96.1701C93.933 97.1301 101.343 90.9901 101.343 81.4901H101.333ZM108.353 100.04C106.323 99.9801 105.463 100.78 105.813 102.41C106.463 105.44 109.923 108.92 112.903 109.41C114.463 109.67 115.603 109.1 115.573 107.3C115.523 104.33 111.303 100.11 108.353 100.03V100.04ZM88.963 39.2301C88.523 37.8801 88.693 36.0801 86.903 35.5701C85.283 35.1201 84.523 36.5901 83.763 37.6301C82.523 39.3201 81.913 41.3501 81.813 43.3801C81.743 44.8201 82.033 46.4901 83.683 47.1701C85.293 47.8301 85.903 46.2801 86.703 45.4501C88.323 43.7601 88.353 41.4301 88.953 39.2301H88.963ZM122.293 83.3201C123.513 83.3901 124.703 83.2901 125.673 82.4801C126.853 81.5101 126.993 80.3401 125.993 79.1701C124.323 77.2101 118.753 76.0701 116.483 77.1701C114.583 78.0901 114.333 79.3401 115.813 80.8601C117.583 82.6801 119.923 83.0601 122.293 83.3101V83.3201ZM107.293 60.3301C109.853 59.8801 112.463 59.1001 114.453 56.9501C115.123 56.2301 115.303 55.4001 115.013 54.5401C114.713 53.6501 113.993 53.2101 113.013 53.1501C110.053 52.9701 107.353 53.5801 105.173 55.7101C104.353 56.5201 103.153 57.2901 103.883 58.6901C104.523 59.9201 105.743 60.3201 107.293 60.3201V60.3301ZM39.723 73.7201C40.993 73.6101 42.683 73.2601 44.243 72.3901C45.103 71.9101 45.923 71.3801 45.843 70.2501C45.773 69.1701 44.963 68.5701 44.113 68.1301C42.493 67.3001 40.713 67.4201 38.973 67.5301C36.263 67.7001 33.793 69.4801 33.953 71.0401C34.113 72.5901 36.383 73.7401 39.723 73.7201ZM48.893 100.01C51.513 99.9201 55.803 96.5401 56.583 93.9501C57.173 91.9801 55.983 90.5801 53.963 91.0601C50.723 91.8401 48.233 93.7101 46.803 96.8001C46.013 98.5201 47.073 100.07 48.893 100V100.01ZM55.443 47.7801C55.443 44.8901 50.553 40.0701 47.953 40.3301C46.573 40.4701 45.843 41.4301 45.923 42.8101C46.093 45.7101 50.343 49.7201 53.183 49.8201C54.773 49.8801 55.643 49.3401 55.443 47.7701V47.7801ZM80.713 111.53C80.893 109.92 80.793 108.19 79.743 106.66C78.693 105.14 77.113 105.1 76.073 106.57C74.623 108.63 74.593 114.35 76.023 116.4C77.153 118.01 78.703 117.94 79.813 116.25C80.743 114.85 80.873 113.29 80.713 111.52V111.53Z" fill="#70C400"/>
<path d="M101.333 81.4901C101.333 90.9901 93.9234 97.1301 83.7934 96.1701C72.4934 95.1001 62.0734 85.9601 59.5534 74.9001C57.3934 65.4101 63.7834 57.4401 73.4334 56.8501C85.5834 56.1101 98.6334 66.2601 101.003 77.8601C101.263 79.1301 101.253 80.3901 101.323 81.4901H101.333Z" fill="#FFF661"/>
<path d="M108.354 100.04C111.304 100.12 115.534 104.34 115.574 107.31C115.604 109.1 114.464 109.68 112.904 109.42C109.914 108.92 106.464 105.45 105.814 102.42C105.464 100.79 106.324 99.99 108.354 100.05V100.04Z" fill="#4C7A0D"/>
<path d="M88.9639 39.2302C88.3639 41.4302 88.3339 43.7602 86.7139 45.4502C85.9139 46.2802 85.3039 47.8302 83.6939 47.1702C82.0439 46.4902 81.7539 44.8202 81.8239 43.3802C81.9239 41.3402 82.5339 39.3102 83.7739 37.6302C84.5339 36.5902 85.2939 35.1202 86.9139 35.5702C88.7039 36.0702 88.5239 37.8802 88.9739 39.2302H88.9639Z" fill="#4C7A0D"/>
<path d="M122.293 83.3201C119.923 83.0701 117.583 82.6901 115.813 80.8701C114.333 79.3401 114.583 78.0901 116.483 77.1801C118.753 76.0801 124.323 77.2201 125.993 79.1801C126.993 80.3501 126.853 81.5101 125.673 82.4901C124.693 83.3001 123.513 83.4001 122.293 83.3301V83.3201Z" fill="#4C7A0D"/>
<path d="M107.294 60.33C105.744 60.33 104.524 59.92 103.884 58.7C103.154 57.3 104.354 56.52 105.174 55.72C107.364 53.58 110.054 52.98 113.014 53.16C113.994 53.22 114.714 53.66 115.014 54.55C115.304 55.41 115.124 56.24 114.454 56.96C112.454 59.11 109.854 59.89 107.294 60.34V60.33Z" fill="#4C7A0D"/>
<path d="M39.7227 73.7202C36.3827 73.7402 34.1127 72.5802 33.9527 71.0402C33.7927 69.4802 36.2627 67.7002 38.9727 67.5302C40.7127 67.4202 42.4927 67.3002 44.1127 68.1302C44.9627 68.5702 45.7627 69.1702 45.8427 70.2502C45.9227 71.3802 45.1027 71.9102 44.2427 72.3902C42.6827 73.2502 41.0027 73.6002 39.7227 73.7202Z" fill="#4C7A0D"/>
<path d="M48.8933 100.01C47.0633 100.08 46.0033 98.53 46.8033 96.81C48.2333 93.72 50.7133 91.85 53.9633 91.07C55.9933 90.58 57.1833 91.99 56.5833 93.96C55.8033 96.55 51.5233 99.92 48.8933 100.02V100.01Z" fill="#4C7A0D"/>
<path d="M55.444 47.7802C55.634 49.3402 54.774 49.8802 53.184 49.8302C50.344 49.7302 46.094 45.7202 45.924 42.8202C45.844 41.4402 46.564 40.4702 47.954 40.3402C50.554 40.0802 55.444 44.9002 55.444 47.7902V47.7802Z" fill="#4C7A0D"/>
<path d="M80.714 111.53C80.874 113.3 80.7439 114.85 79.814 116.26C78.7039 117.94 77.144 118.01 76.024 116.41C74.594 114.36 74.624 108.64 76.074 106.58C77.114 105.11 78.694 105.14 79.744 106.67C80.794 108.2 80.904 109.92 80.714 111.54V111.53Z" fill="#4C7A0D"/>
<path d="M224.375 145.982C221.587 147.375 219.032 147.654 216.709 146.818C214.478 145.982 212.62 144.774 211.133 143.194C210.204 142.357 209.553 141.289 209.181 139.988C208.81 138.687 208.67 137.339 208.763 135.945C208.856 134.551 209.135 133.111 209.6 131.624C210.157 130.23 210.854 128.929 211.69 127.721C213.642 124.84 215.268 122.146 216.569 119.636C217.87 117.127 218.939 114.618 219.775 112.109C220.612 109.507 221.216 106.719 221.587 103.746C221.959 101.33 222.145 98.5883 222.145 95.5217H197.054C194.452 95.5217 192.315 95.2893 190.642 94.8247C188.97 94.2671 187.669 93.5702 186.739 92.7338C185.81 91.8045 185.16 90.7823 184.788 89.6672C184.509 88.4591 184.37 87.1581 184.37 85.7642C184.37 84.6491 184.509 83.5339 184.788 82.4188C185.16 81.2108 185.81 80.1885 186.739 79.3522C187.669 78.4229 188.97 77.6795 190.642 77.1219C192.315 76.5644 194.452 76.2856 197.054 76.2856H222.284V49.9405H198.727C196.125 49.9405 193.988 49.7082 192.315 49.2435C190.642 48.6859 189.341 47.989 188.412 47.1526C187.483 46.2234 186.832 45.2011 186.461 44.086C186.182 42.8779 186.042 41.577 186.042 40.183C186.042 39.0679 186.182 37.9528 186.461 36.8376C186.832 35.6296 187.483 34.6074 188.412 33.771C189.341 32.8417 190.642 32.0983 192.315 31.5407C193.988 30.9832 196.125 30.7044 198.727 30.7044H234.69C237.199 30.7044 239.151 30.9832 240.545 31.5407C241.939 32.0054 243.007 32.7023 243.751 33.6316C244.494 34.468 244.959 35.5366 245.145 36.8376C245.33 38.1386 245.423 39.6255 245.423 41.2982V97.3338C245.423 99.1923 245.284 101.469 245.005 104.164C244.726 106.859 244.262 109.786 243.611 112.946C242.961 116.105 242.078 119.358 240.963 122.703C239.941 125.956 238.64 129.069 237.06 132.042C235.48 135.109 233.622 137.85 231.484 140.266C229.44 142.683 227.07 144.588 224.375 145.982ZM289.611 148.63C288.124 148.63 286.683 148.444 285.289 148.072C283.988 147.701 282.78 147.05 281.665 146.121C280.643 145.192 279.807 143.937 279.156 142.357C278.599 140.778 278.32 138.78 278.32 136.364V41.1588C278.32 36.5124 279.435 33.3528 281.665 31.6801C283.988 29.9145 286.637 29.0317 289.611 29.0317C291.097 29.0317 292.491 29.2175 293.792 29.5892C295.186 29.961 296.394 30.6115 297.417 31.5407C298.439 32.47 299.275 33.7245 299.926 35.3043C300.576 36.8841 300.901 38.8356 300.901 41.1588V136.364C300.901 138.78 300.576 140.778 299.926 142.357C299.275 143.937 298.439 145.192 297.417 146.121C296.394 147.05 295.186 147.701 293.792 148.072C292.491 148.444 291.097 148.63 289.611 148.63ZM358.079 95.1035C347.3 95.1035 339.122 92.7338 333.546 87.9945C327.971 83.2552 324.904 76.2856 324.346 67.0857C324.254 65.8776 324.161 64.9484 324.068 64.2979C324.068 63.6474 324.068 63.0433 324.068 62.4858C324.068 61.9282 324.068 61.3706 324.068 60.8131C324.161 60.1626 324.254 59.2333 324.346 58.0252C324.811 48.7324 327.785 41.6699 333.268 36.8376C338.843 31.9124 347.114 29.4499 358.079 29.4499C368.487 29.4499 376.526 31.9124 382.194 36.8376C387.956 41.6699 391.162 48.7324 391.812 58.0252C391.905 59.2333 391.952 60.1626 391.952 60.8131V64.2979C391.952 64.8554 391.905 65.7847 391.812 67.0857C391.626 76.4714 388.606 83.4875 382.752 88.1339C376.897 92.7803 368.673 95.1035 358.079 95.1035ZM361.007 148.63C359.52 148.63 358.079 148.444 356.685 148.072C355.384 147.701 354.176 147.05 353.061 146.121C352.039 145.192 351.203 143.937 350.552 142.357C349.995 140.778 349.716 138.78 349.716 136.364V122.424H332.152C329.55 122.424 327.413 122.146 325.74 121.588C324.068 121.03 322.767 120.333 321.837 119.497C320.908 118.568 320.258 117.546 319.886 116.43C319.607 115.222 319.468 114.061 319.468 112.946C319.468 111.552 319.607 110.297 319.886 109.182C320.258 107.974 320.908 106.952 321.837 106.115C322.767 105.186 324.068 104.489 325.74 104.025C327.413 103.467 329.55 103.188 332.152 103.188H389.024C391.626 103.188 393.764 103.467 395.436 104.025C397.109 104.489 398.41 105.186 399.339 106.115C400.269 106.952 400.873 107.974 401.151 109.182C401.523 110.297 401.709 111.552 401.709 112.946C401.709 114.061 401.523 115.222 401.151 116.43C400.873 117.546 400.269 118.568 399.339 119.497C398.41 120.333 397.109 121.03 395.436 121.588C393.764 122.146 391.626 122.424 389.024 122.424H372.297V136.364C372.297 138.78 371.972 140.778 371.322 142.357C370.671 143.937 369.835 145.192 368.813 146.121C367.79 147.05 366.582 147.701 365.188 148.072C363.887 148.444 362.493 148.63 361.007 148.63ZM358.079 76.1462C358.823 76.1462 359.798 76.0997 361.007 76.0068C362.215 75.8209 363.423 75.4027 364.631 74.7523C365.839 74.1018 366.861 73.2189 367.697 72.1038C368.627 70.8957 369.138 69.223 369.231 67.0857C369.324 65.6918 369.37 64.6696 369.37 64.0191V60.3949C369.37 59.7444 369.324 58.7686 369.231 57.4676C369.231 55.5162 368.766 53.9364 367.837 52.7283C367 51.5203 365.978 50.6374 364.77 50.0799C363.562 49.4294 362.308 49.0112 361.007 48.8253C359.798 48.6395 358.823 48.5466 358.079 48.5466C357.336 48.5466 356.36 48.6859 355.152 48.9647C353.944 49.1506 352.736 49.5688 351.528 50.2193C350.32 50.8698 349.251 51.8455 348.322 53.1465C347.486 54.3546 347.021 55.9343 346.928 57.8858C346.835 59.1868 346.742 60.1626 346.649 60.8131C346.649 61.4635 346.649 62.0676 346.649 62.6252C346.649 63.1827 346.649 63.7867 346.649 64.4372C346.742 64.9948 346.835 65.8776 346.928 67.0857C346.928 69.223 347.346 70.8957 348.182 72.1038C349.019 73.2189 350.041 74.1018 351.249 74.7523C352.457 75.4027 353.665 75.8209 354.873 76.0068C356.174 76.0997 357.243 76.1462 358.079 76.1462ZM423.454 148.63C421.967 148.63 420.527 148.444 419.133 148.072C417.832 147.701 416.624 147.05 415.509 146.121C414.487 145.192 413.65 143.937 413 142.357C412.442 140.778 412.163 138.78 412.163 136.364V41.1588C412.163 36.5124 413.279 33.3528 415.509 31.6801C417.832 29.9145 420.48 29.0317 423.454 29.0317C424.941 29.0317 426.335 29.2175 427.636 29.5892C429.03 29.961 430.238 30.6115 431.26 31.5407C432.282 32.47 433.119 33.7245 433.769 35.3043C434.42 36.8841 434.745 38.8356 434.745 41.1588V136.364C434.745 138.78 434.42 140.778 433.769 142.357C433.119 143.937 432.282 145.192 431.26 146.121C430.238 147.05 429.03 147.701 427.636 148.072C426.335 148.444 424.941 148.63 423.454 148.63Z" fill="#70C400"/>
</svg>
